<svg width="50" height="49" viewBox="0 0 50 49" fill="none" xmlns="http://www.w3.org/2000/svg">
<path d="M1 24.5C1 11.2452 11.7452 0.5 25 0.5C38.2548 0.5 49 11.2452 49 24.5C49 37.7548 38.2548 48.5 25 48.5C11.7452 48.5 1 37.7548 1 24.5ZM1 24.5C2.5226 28.4137 4.69043 30.202 7.13953 31.0571M31.0492 38.496L31.0402 44.181M31.0402 44.181L33.1121 46.4996M31.0402 44.181C26.9758 45.5173 22.6346 46.2989 17.0052 44.5014M17.1592 38.5428L17.0052 44.5014M17.0052 44.5014L14.9423 46.291M37.6754 27.5307C37.6754 27.5307 36.8313 30.8224 36.0969 32.342C35.3378 33.9112 35.3121 34.5006 33.2114 36.7064C32.1051 37.8698 29.589 39.658 25.614 41.7877C24.5792 42.3424 22.7395 42.2646 21.7661 41.6894C18.5892 39.813 12.5155 35.2979 11.8502 33.1789L8.96355 24.0033C11.1001 25.3662 12.0757 25.3785 12.9654 25.5817C10.9695 24.1629 9.70811 23.1259 8.98809 21.6044C9.16558 20.1677 9.08521 19.374 9.09303 18.3605M9.09303 18.3605C10.6201 20.334 11.5991 20.8822 12.6863 21.7093C11.8971 19.2814 11.6381 16.8937 12.0579 14.5584C12.962 17.0857 14.2748 18.6127 15.6858 19.8954C13.4867 15.7294 14.8597 11.6371 14.6398 7.51134C15.6411 13.4745 15.3129 20.3619 20.814 23.7677L18.1628 20.0003C20.2635 22.1528 22.5515 24.114 25 25.8608L22.9416 22.407C25.3416 24.9744 26.776 24.7847 28.5933 25.6866C26.4311 23.0622 24.6193 20.0527 23.57 17.175M9.09303 18.3605C8.29714 16.3545 8.73804 13.6487 8.40541 11.3502L9.75276 15.5675C9.52726 12.3973 9.37098 9.2438 9.51276 6.16623M28.7674 2.94242C29.5812 8.92567 31.0445 16.9997 26.5594 22.9484L28.907 20.2794L27.3888 24.1339C29.6883 20.5897 32.8574 20.1376 31.0056 3.60551M20.9189 2.76717C21.4246 8.37314 20.085 14.7672 26.5349 17.8369C23.3468 16.6515 19.8595 17.6528 19.2177 3.04626M31.5603 14.5104C33.0138 17.06 35.2196 19.6978 37.6161 20.362C34.5084 15.3275 34.7988 10.3668 34.3834 5.27882C32.5327 3.54635 30.2521 1.74466 30.9877 1.25907M19.8372 35.0354C20.7526 35.6237 26.3116 35.8694 27.9302 35.2443M38.0069 4.32885C40.8221 14.8531 38.7213 20.7114 33.6689 25.6341M33.6689 25.6341C37.5257 24.6362 39.8344 21.274 42.4599 18.3951C42.8481 24.3672 39.7704 28.4259 36.1662 32.1945C39.8008 28.8055 45.6165 25.4355 45.9112 12.721M33.6689 25.6341C29.5086 26.2291 30.0043 23.4708 30.7477 20.5327M41.2339 25.2512C39.4972 27.2193 36.5034 27.9203 34.3309 28.0062C36.1805 26.4267 38.5048 25.3517 38.9614 22.2931M47.0868 15.1099C47.2833 27.3398 41.9955 29.3435 39.9269 28.7876C39.9694 31.4779 38.2691 32.4634 36.098 32.3409M39.0932 10.302C35.216 2.62204 21.1154 -1.76269 9.46028 8.21126M1.86848 30.8985C5.39035 35.2611 9.4257 37.8852 14.4824 37.8777C10.1557 35.9241 7.17082 32.2213 5.44729 26.8721M5.44729 26.8721C6.51892 27.9247 7.51239 29.0042 8.93565 29.924M5.44729 26.8721C7.31592 28.2831 10.0162 29.2107 12.3023 29.6449L8.40651 27.3086L11.8837 27.3956C4.0307 26.0717 3.79741 21.4894 2.02365 17.5668M44.2313 26.8978C44.2906 29.5121 44.5481 32.1598 41.36 34.2316C42.596 34.5956 43.6161 33.1847 44.6745 31.9301C44.4656 33.429 43.5504 34.7385 40.5934 37.0236C41.9508 37.6676 43.1943 36.2534 44.4645 35.3247M44.4645 35.3247L41.8826 41.558M44.4645 35.3247C46.2831 33.2493 46.83 31.2436 46.4695 28.5644L48.2331 30.5188C47.9127 27.4023 47.4919 24.0278 46.4917 21.8734M9.59538 22.6168C10.4192 20.0416 13.432 19.7603 17.9552 21.063M37.4721 20.6489C35.0388 19.3942 30.9195 19.9791 29.6236 21.1266M33.9415 20.094C35.0835 21.1534 35.2542 22.6168 35.4639 23.732M16.9806 21.0462C20.133 25.8239 11.7073 27.3365 12.165 21.3231M32.5459 22.6715L33.4446 23.1247M14.9155 22.3757L15.0406 23.1526M43.1093 8.74932C44.0469 15.8991 40.1691 20.247 36.6884 22.0029M37.2789 32.7514L38.6745 34.9307L37.4186 37.0236L38.2334 38.6275L37.0346 39.0461L36.6684 38.1977C35.5007 38.9847 34.8477 39.2483 33.7729 39.4647L33.9636 35.8862M24.2521 29.1649C24.4809 29.9017 24.0735 30.2779 23.5578 30.4375C23.042 30.597 22.6145 30.4788 22.3868 29.7421C22.1591 29.0053 22.3924 28.2797 22.907 28.1201C23.4227 27.9605 24.0244 28.4282 24.2521 29.1649Z" stroke="#F4F4F4" stroke-width="0.7" stroke-linecap="round" stroke-linejoin="round"/>
</svg>
