<svg width="168" height="239" viewBox="0 0 168 239" fill="none" xmlns="http://www.w3.org/2000/svg">
<path d="M84.0524 150.375C121.159 150.375 151.24 120.294 151.24 83.1875C151.24 46.0809 121.159 16 84.0524 16C46.9458 16 16.8649 46.0809 16.8649 83.1875C16.8649 120.294 46.9458 150.375 84.0524 150.375Z" stroke="#333333" stroke-width="2" stroke-linecap="round" stroke-linejoin="round"/>
<path d="M100.987 122.369L100.962 138.284L106.762 144.775M62.1024 122.5L61.6711 139.181L55.8961 144.191" stroke="#333333" stroke-width="2" stroke-linecap="round" stroke-linejoin="round"/>
<path d="M39.1587 81.7969L47.2399 107.484C49.1024 113.416 66.1056 126.056 74.9993 131.309C77.7243 132.919 82.8743 133.137 85.7712 131.584C96.8993 125.622 103.943 120.616 107.04 117.359C112.921 111.184 112.993 109.534 115.118 105.141C117.174 100.887 119.537 91.6719 119.537 91.6719" stroke="#333333" stroke-width="2" stroke-linecap="round" stroke-linejoin="round"/>
<path d="M39.1587 81.7969C45.1399 85.6125 47.8712 85.6469 50.3618 86.2156C44.7743 82.2437 41.2431 79.3406 39.2274 75.0812C39.7243 71.0594 39.4993 68.8375 39.5212 66M39.5212 66C43.7962 71.525 46.5368 73.0594 49.5806 75.375C47.3712 68.5781 46.6462 61.8937 47.8212 55.3562C50.3524 62.4312 54.0274 66.7062 57.9774 70.2969C51.8212 58.6344 55.6649 47.1781 55.0493 35.6281C57.8524 52.3219 56.9337 71.6031 72.3337 81.1375L64.9118 70.5906C70.7926 76.6165 77.198 82.1069 84.0524 86.9969L78.2899 77.3281C85.0087 84.5156 89.0243 83.9844 94.1118 86.5094C88.0587 79.1625 82.9868 70.7375 80.0493 62.6812M39.5212 66C37.2931 60.3844 38.5274 52.8094 37.5962 46.375L41.3681 58.1812C40.7368 49.3062 40.2993 40.4781 40.6962 31.8625" stroke="#333333" stroke-width="2" stroke-linecap="round" stroke-linejoin="round"/>
<path d="M94.5993 22.8375C96.8774 39.5875 100.974 62.1907 88.4181 78.8438L94.9899 71.3719L90.7399 82.1626C97.1774 72.2407 106.049 70.975 100.865 24.6938M72.6274 22.3469C74.0431 38.0407 70.2931 55.9407 88.3493 64.5344C79.4243 61.2157 69.6618 64.0188 67.8649 23.1282" stroke="#333333" stroke-width="2" stroke-linecap="round" stroke-linejoin="round"/>
<path d="M102.418 55.2219C106.487 62.3594 112.662 69.7438 119.371 71.6032C110.671 57.5094 111.484 43.6219 110.321 29.3782M69.5993 112.681C72.1618 114.328 87.7243 115.016 92.2556 113.266M81.9587 96.2469C82.5993 98.3094 81.4587 99.3626 80.0149 99.8094C78.5712 100.256 77.3743 99.9251 76.7368 97.8626C76.0993 95.8001 76.7524 93.7688 78.1931 93.3219C79.6368 92.8751 81.3212 94.1844 81.9587 96.2469Z" stroke="#333333" stroke-width="2" stroke-linecap="round" stroke-linejoin="round"/>
<path d="M120.465 26.7188C128.346 56.1813 122.465 72.5813 108.321 86.3625C119.118 83.5688 125.581 74.1563 132.931 66.0969C134.018 82.8156 125.402 94.1781 115.312 104.728C125.487 95.2406 141.768 85.8063 142.593 50.2125" stroke="#333333" stroke-width="2" stroke-linecap="round" stroke-linejoin="round"/>
<path d="M129.499 85.2906C124.637 90.8 116.256 92.7625 110.174 93.0031C115.352 88.5813 121.859 85.5719 123.137 77.0094" stroke="#333333" stroke-width="2" stroke-linecap="round" stroke-linejoin="round"/>
<path d="M145.884 56.9C146.434 91.1375 131.631 96.7469 125.84 95.1906C125.959 102.722 121.199 105.481 115.121 105.138M123.506 43.4406C112.652 21.9406 73.1775 9.66563 40.5493 37.5875M19.2962 101.1C29.1556 113.313 40.4525 120.659 54.6087 120.638C42.4962 115.169 34.14 104.803 29.315 89.8281M29.315 89.8281C32.315 92.775 35.0962 95.7969 39.0806 98.3719M29.315 89.8281C34.5462 93.7781 42.1056 96.375 48.5056 97.5906L37.5993 91.05L47.3337 91.2938C25.3493 87.5875 24.6962 74.7594 19.7306 63.7781M61.6712 139.181C77.4306 144.213 89.5837 142.025 100.962 138.284" stroke="#333333" stroke-width="2" stroke-linecap="round" stroke-linejoin="round"/>
<path d="M137.89 89.9C138.056 97.2188 138.777 104.631 129.852 110.431C133.312 111.45 136.168 107.5 139.131 103.988C138.546 108.184 135.984 111.85 127.706 118.247C131.506 120.05 134.987 116.091 138.543 113.491L131.315 130.941M40.9275 77.9156C43.2337 70.7063 51.6681 69.9188 64.3306 73.5656M118.968 72.4063C112.156 68.8938 100.624 70.5313 96.9962 73.7438" stroke="#333333" stroke-width="2" stroke-linecap="round" stroke-linejoin="round"/>
<path d="M109.084 70.8531C112.281 73.8187 112.759 77.9156 113.346 81.0375M100.143 72.0812C98.0618 80.3062 96.6743 88.0281 108.321 86.3625M61.6024 73.5187C70.4274 86.8938 46.8399 91.1281 48.1212 74.2937M105.177 78.0687L107.693 79.3375M55.8212 77.2406L56.1712 79.4156M144.218 75.8344C147.018 81.8656 148.196 91.3125 149.093 100.037L144.156 94.5656C145.165 102.066 143.634 107.681 138.543 113.491M100.815 18.125C98.7555 19.4844 105.14 24.5281 110.321 29.3781M34.0524 101.544C27.1962 99.15 21.1274 94.1437 16.8649 83.1875M134.749 39.0938C137.374 59.1094 126.518 71.2813 116.774 76.1969M118.427 106.287L122.334 112.388L118.818 118.247L121.099 122.737L117.743 123.909L116.718 121.534C113.449 123.737 111.621 124.475 108.612 125.081L109.146 115.063" stroke="#333333" stroke-width="2" stroke-linecap="round" stroke-linejoin="round"/>
<path d="M46.2345 205.613C46.711 205.77 47.1446 205.895 47.5352 205.988C48.2931 202.941 49.1563 199.344 50.1251 195.195L47.3009 194.891C47.1212 194.398 47.0313 193.84 47.0313 193.215C47.0313 192.738 47.086 192.273 47.1954 191.82C48.3282 191.602 49.6329 191.445 51.1095 191.352C52.5938 191.25 53.8673 191.199 54.9298 191.199C55.6954 191.199 56.2696 191.203 56.6524 191.211L57.3907 191.633C58.7032 195.234 60.0352 200.105 61.3868 206.246C61.4024 206.309 61.4298 206.434 61.4688 206.621C61.5157 206.809 61.5509 206.988 61.5743 207.16C61.5977 207.324 61.6095 207.48 61.6095 207.629C61.6095 208.285 61.3751 208.816 60.9063 209.223C60.2501 209.48 59.4571 209.609 58.5274 209.609C58.0899 209.609 57.6485 209.562 57.2032 209.469C56.7579 209.375 56.4571 209.23 56.3009 209.035L56.4415 206.012L56.1485 204.441C55.6407 204.473 55.0431 204.488 54.3556 204.488C53.6212 204.488 52.9337 204.465 52.2931 204.418L52.1524 205.051C51.8477 206.41 51.5977 207.375 51.4024 207.945C51.2149 208.516 50.9337 208.938 50.5587 209.211C50.1915 209.484 49.6407 209.621 48.9063 209.621C48.4298 209.621 47.9493 209.559 47.4649 209.434C46.9806 209.316 46.5431 209.156 46.1524 208.953C45.7618 208.75 45.4688 208.531 45.2735 208.297C45.2735 207.734 45.3595 207.199 45.5313 206.691C45.7032 206.184 45.9376 205.824 46.2345 205.613ZM54.4493 195.301H53.9102L53.0665 201.078H55.6915L54.4493 195.301ZM64.1063 205.297C64.1063 204.023 64.122 203.062 64.1532 202.414C64.1845 201.758 64.2665 200.797 64.3993 199.531L63.0399 199.355C62.8759 198.848 62.7665 198.395 62.7118 197.996C62.6649 197.598 62.6415 197.082 62.6415 196.449C62.7665 196.34 62.9735 196.211 63.2626 196.062C63.5595 195.906 63.911 195.773 64.3173 195.664C64.7235 195.547 65.1337 195.488 65.5477 195.488C66.4931 195.488 67.161 195.691 67.5516 196.098C67.9501 196.504 68.1493 197.113 68.1493 197.926C68.1493 198.379 68.0829 198.992 67.9501 199.766C67.7313 201.008 67.622 201.66 67.622 201.723C67.622 201.762 67.6493 201.801 67.704 201.84C67.7587 201.871 67.8173 201.887 67.8798 201.887C67.9501 201.887 67.997 201.859 68.0204 201.805C68.3329 200.562 68.6454 199.523 68.9579 198.688C69.2704 197.852 69.7431 197.109 70.3759 196.461C71.0087 195.812 71.829 195.488 72.8368 195.488C74.0868 195.488 74.9852 195.871 75.5321 196.637C76.079 197.395 76.3524 198.352 76.3524 199.508C76.3524 200.539 76.2313 201.535 75.9891 202.496C75.747 203.449 75.4462 204.445 75.0868 205.484C75.1024 205.445 75.0477 205.598 74.9227 205.941L74.9462 205.965L76.6571 205.262C77.2665 205.785 77.622 206.48 77.7235 207.348C77.7235 207.402 77.5477 207.625 77.1962 208.016C76.8524 208.406 76.3954 208.77 75.8251 209.105C75.2548 209.441 74.5985 209.609 73.8563 209.609C73.1141 209.609 72.5087 209.41 72.0399 209.012C71.5712 208.613 71.3368 207.934 71.3368 206.973C71.3368 206.207 71.3681 205.184 71.4306 203.902C71.4931 202.621 71.5556 201.59 71.6181 200.809C71.4149 200.59 71.1649 200.473 70.8681 200.457C70.5946 200.809 70.1923 201.512 69.661 202.566C69.1298 203.621 68.7548 204.41 68.536 204.934C68.5204 205.043 68.5126 205.148 68.5126 205.25C68.5126 205.641 68.5712 206.168 68.6884 206.832C68.8056 207.488 68.9501 208.102 69.122 208.672C68.9813 208.938 68.6923 209.16 68.2548 209.34C67.8173 209.52 67.2782 209.609 66.6376 209.609C66.0595 209.609 65.5946 209.562 65.2431 209.469C64.8993 209.375 64.6571 209.277 64.5165 209.176C64.3759 209.066 64.3056 209 64.3056 208.977C64.2977 208.906 64.2782 208.723 64.247 208.426C64.2157 208.121 64.1845 207.699 64.1532 207.16C64.122 206.613 64.1063 205.992 64.1063 205.297ZM79.3532 192.559C79.3532 191.871 79.5759 191.312 80.0212 190.883C80.4743 190.453 81.1931 190.238 82.1774 190.238C83.1618 190.238 83.8766 190.453 84.322 190.883C84.7751 191.312 85.0016 191.871 85.0016 192.559C85.0016 192.949 84.8649 193.309 84.5915 193.637C84.3259 193.965 83.9743 194.227 83.5368 194.422C83.0993 194.609 82.6462 194.703 82.1774 194.703C81.6696 194.703 81.197 194.594 80.7595 194.375C80.3298 194.148 79.986 193.867 79.7282 193.531C79.4782 193.195 79.3532 192.871 79.3532 192.559ZM78.779 199.262C78.6774 198.879 78.6071 198.531 78.5681 198.219C78.529 197.898 78.5095 197.566 78.5095 197.223L78.5212 196.895C78.6852 196.684 78.9391 196.473 79.2829 196.262C79.6345 196.043 80.0407 195.859 80.5016 195.711C80.9704 195.562 81.4548 195.488 81.9548 195.488C83.0485 195.488 83.8259 195.734 84.2868 196.227C84.7477 196.719 84.9782 197.484 84.9782 198.523C84.9782 199.148 84.8884 199.965 84.7087 200.973C84.5368 201.98 84.3259 202.961 84.0759 203.914C83.8337 204.859 83.6227 205.535 83.4431 205.941L83.4665 205.965L85.2009 205.332C85.5134 205.598 85.7477 205.891 85.904 206.211C86.0681 206.531 86.1735 206.902 86.2204 207.324C86.2204 207.379 86.0485 207.605 85.7048 208.004C85.361 208.395 84.904 208.762 84.3337 209.105C83.7712 209.441 83.1188 209.609 82.3766 209.609C81.6266 209.609 81.0173 209.406 80.5485 209C80.0876 208.594 79.8571 207.898 79.8571 206.914C79.8571 205.766 79.8884 204.547 79.9509 203.258C80.0134 201.969 80.111 200.719 80.2438 199.508L78.779 199.262ZM88.5181 205.297C88.5181 204.023 88.5337 203.062 88.5649 202.414C88.5962 201.758 88.6782 200.797 88.811 199.531L87.4634 199.355C87.2993 198.848 87.1899 198.395 87.1352 197.996C87.0884 197.598 87.0649 197.082 87.0649 196.449C87.1899 196.34 87.397 196.211 87.686 196.062C87.9829 195.906 88.3306 195.773 88.729 195.664C89.1352 195.547 89.5454 195.488 89.9595 195.488C90.9048 195.488 91.5727 195.691 91.9634 196.098C92.3618 196.504 92.561 197.113 92.561 197.926C92.561 198.379 92.4946 198.992 92.3618 199.766C92.1431 201.008 92.0337 201.66 92.0337 201.723C92.0337 201.762 92.061 201.801 92.1157 201.84C92.1704 201.871 92.229 201.887 92.2915 201.887C92.3618 201.887 92.4087 201.859 92.4321 201.805C92.4243 201.836 92.5141 201.441 92.7016 200.621C92.9282 199.543 93.1587 198.664 93.3931 197.984C93.6352 197.305 94.0181 196.723 94.5415 196.238C95.0649 195.754 95.7759 195.512 96.6743 195.512C97.7837 195.512 98.5845 195.832 99.0766 196.473C99.5688 197.105 99.8149 197.949 99.8149 199.004C99.8149 199.84 99.6743 200.77 99.3931 201.793C99.3931 201.832 99.4204 201.871 99.4751 201.91C99.5298 201.941 99.5884 201.957 99.6509 201.957C99.7212 201.957 99.7681 201.93 99.7915 201.875L99.9556 201.219C100.237 200.062 100.514 199.102 100.788 198.336C101.069 197.57 101.487 196.91 102.041 196.355C102.604 195.793 103.334 195.512 104.233 195.512C105.413 195.512 106.26 195.891 106.776 196.648C107.299 197.406 107.561 198.359 107.561 199.508C107.561 200.32 107.483 201.137 107.327 201.957C107.178 202.777 107.018 203.465 106.846 204.02C106.682 204.574 106.479 205.215 106.237 205.941L106.26 205.965L107.995 205.238C108.604 205.762 108.959 206.457 109.061 207.324C109.061 207.379 108.885 207.605 108.534 208.004C108.182 208.395 107.717 208.762 107.139 209.105C106.569 209.441 105.913 209.609 105.17 209.609C104.428 209.609 103.823 209.41 103.354 209.012C102.885 208.613 102.651 207.934 102.651 206.973C102.651 205.902 102.67 204.805 102.709 203.68C102.756 202.547 102.823 201.531 102.909 200.633C102.776 200.523 102.592 200.465 102.358 200.457C102.124 200.684 101.831 201.18 101.479 201.945C101.127 202.703 100.803 203.516 100.506 204.383C100.209 205.242 100.022 205.914 99.9438 206.398C100.053 207.164 100.221 207.922 100.448 208.672C100.307 208.938 100.018 209.16 99.5806 209.34C99.1431 209.52 98.604 209.609 97.9634 209.609C97.3852 209.609 96.9321 209.562 96.604 209.469C96.2759 209.375 96.0493 209.277 95.9243 209.176C95.8071 209.074 95.7485 209.008 95.7485 208.977C95.7407 208.906 95.7212 208.723 95.6899 208.426C95.6587 208.121 95.6274 207.699 95.5962 207.16C95.5649 206.613 95.5493 205.992 95.5493 205.297C95.5493 204.633 95.6001 203.801 95.7016 202.801C95.7095 202.676 95.7329 202.379 95.772 201.91C95.811 201.441 95.8306 201.016 95.8306 200.633C95.6977 200.523 95.5141 200.465 95.2798 200.457C95.147 200.559 94.7759 201.207 94.1665 202.402C93.5571 203.598 93.1509 204.441 92.9477 204.934C92.9321 205.043 92.9243 205.148 92.9243 205.25C92.9243 205.641 92.9829 206.168 93.1001 206.832C93.2173 207.488 93.3618 208.102 93.5337 208.672C93.3931 208.938 93.104 209.16 92.6665 209.34C92.229 209.52 91.6899 209.609 91.0493 209.609C90.4712 209.609 90.0063 209.562 89.6548 209.469C89.311 209.375 89.0688 209.277 88.9282 209.176C88.7876 209.066 88.7173 209 88.7173 208.977C88.7095 208.906 88.6899 208.723 88.6587 208.426C88.6274 208.121 88.5962 207.699 88.5649 207.16C88.5337 206.613 88.5181 205.992 88.5181 205.297ZM110.011 202.566C110.011 201.215 110.238 200.008 110.691 198.945C111.144 197.883 111.843 197.043 112.788 196.426C113.741 195.801 114.929 195.488 116.351 195.488C117.093 195.488 117.835 195.578 118.577 195.758C119.32 195.93 119.949 196.219 120.464 196.625C120.941 197.008 121.284 197.516 121.495 198.148C121.714 198.773 121.824 199.469 121.824 200.234C121.824 200.742 121.781 201.262 121.695 201.793C121.601 201.949 121.417 202.156 121.144 202.414C120.87 202.664 120.55 202.91 120.183 203.152C119.816 203.395 119.46 203.582 119.116 203.715C118.788 203.738 118.449 203.75 118.097 203.75C117.48 203.75 116.855 203.723 116.222 203.668C115.589 203.613 115.034 203.551 114.558 203.48C114.62 204.145 114.824 204.723 115.167 205.215C115.511 205.707 116.058 205.953 116.808 205.953C116.878 205.953 116.991 205.945 117.148 205.93C117.624 205.883 118.179 205.758 118.812 205.555C119.452 205.344 120.089 205.102 120.722 204.828C121.019 205.125 121.238 205.422 121.378 205.719C121.519 206.016 121.616 206.441 121.671 206.996C121.429 207.277 121.034 207.621 120.488 208.027C119.949 208.434 119.288 208.801 118.507 209.129C117.726 209.449 116.909 209.609 116.058 209.609C114.777 209.609 113.679 209.301 112.765 208.684C111.859 208.059 111.171 207.215 110.702 206.152C110.241 205.082 110.011 203.887 110.011 202.566ZM117.558 199.871C117.449 199.754 117.265 199.664 117.007 199.602C116.749 199.531 116.48 199.496 116.199 199.496C115.972 199.496 115.741 199.516 115.507 199.555C115.281 199.594 115.144 199.637 115.097 199.684C114.831 200.207 114.663 200.801 114.593 201.465L117.722 201.16L117.558 199.871Z" fill="#06D6A0"/>
</svg>
