<svg width="201" height="230" viewBox="0 0 201 230" fill="none" xmlns="http://www.w3.org/2000/svg">
<path d="M114.709 49.9577C114.709 38.2579 105.225 28.7734 93.5265 28.7734C81.8276 28.7734 72.3437 38.2579 72.3437 49.9577V68.6671C72.3437 80.3669 81.8276 89.8515 93.5265 89.8515C105.225 89.8515 114.709 80.3669 114.709 68.6671V49.9577Z" stroke="#333333" stroke-width="2" stroke-linecap="round" stroke-linejoin="round"/>
<path d="M114.709 68.6703V132.22M91.4063 89.8515V101.502C76.4063 101.502 53.6313 121.095 53.6313 132.22" stroke="#333333" stroke-width="2" stroke-linecap="round" stroke-linejoin="round"/>
<path d="M158.312 132.217C158.312 132.217 149.134 104.152 134.431 104.152V49.8422C134.431 45.418 133.56 41.0372 131.867 36.9498C130.173 32.8624 127.692 29.1486 124.563 26.0204C121.435 22.8922 117.721 20.4108 113.633 18.7181C109.546 17.0253 105.165 16.1543 100.741 16.1547C96.3159 16.1538 91.9344 17.0247 87.8463 18.7175C83.7583 20.4103 80.0437 22.8918 76.9148 26.0204C73.7859 29.149 71.304 32.8633 69.6109 36.9512C67.9177 41.0392 67.0465 45.4206 67.0469 49.8453V104.152C55.9281 108.211 44.275 124.098 42.6875 132.217" stroke="#333333" stroke-width="2" stroke-linecap="round" stroke-linejoin="round"/>
<path d="M84.9656 68.4922C85.7875 71.2235 92.85 71.4078 94.0125 68.4922M84.9656 53.3422C84.0812 50.611 76.4906 50.4266 75.2406 53.3422M104.187 53.3422C103.303 50.611 95.7125 50.4266 94.4625 53.3422M82.2281 75.6422C83.2194 76.5023 84.3723 77.1562 85.6193 77.5656C86.8663 77.975 88.1823 78.1317 89.4906 78.0266C90.8688 78.111 92.2495 77.9073 93.5446 77.4284C94.8396 76.9496 96.0207 76.2061 97.0125 75.2453" stroke="#333333" stroke-width="2" stroke-linecap="round" stroke-linejoin="round"/>
<path d="M81.9844 56.7797C83.2788 56.7797 84.3282 55.7303 84.3282 54.4359C84.3282 53.1415 83.2788 52.0922 81.9844 52.0922C80.69 52.0922 79.6407 53.1415 79.6407 54.4359C79.6407 55.7303 80.69 56.7797 81.9844 56.7797Z" fill="#333333"/>
<path d="M101.844 56.7797C103.138 56.7797 104.187 55.7303 104.187 54.4359C104.187 53.1415 103.138 52.0922 101.844 52.0922C100.549 52.0922 99.5 53.1415 99.5 54.4359C99.5 55.7303 100.549 56.7797 101.844 56.7797Z" fill="#333333"/>
<path d="M16.6359 188.255C16.6359 187.544 16.7805 186.861 17.0695 186.205C17.2023 186.205 17.4094 186.232 17.6906 186.287C17.9719 186.334 18.2688 186.396 18.5813 186.474C18.5422 184.794 18.5227 183.154 18.5227 181.552C18.5227 179.826 18.5539 178.353 18.6164 177.134H18.6047L18.6164 176.994L16.7063 176.748C16.5891 176.271 16.5109 175.877 16.4719 175.564C16.4328 175.244 16.4172 174.877 16.425 174.462C16.675 174.181 17.0422 173.935 17.5266 173.724C18.0188 173.505 18.5461 173.341 19.1086 173.232C19.6789 173.115 20.1984 173.056 20.6672 173.056C21.5656 173.056 22.2648 173.236 22.7648 173.595C23.2727 173.947 23.5617 174.509 23.632 175.283C23.6555 175.587 23.6672 175.919 23.6672 176.279C23.6672 177.466 23.5617 178.873 23.3508 180.498C23.1398 182.123 22.8586 184.021 22.507 186.193L22.4133 186.802L25.4016 186.966L26.6203 183.076C26.9875 183.06 27.4055 183.087 27.8742 183.158C28.3508 183.228 28.7609 183.326 29.1047 183.451C29.2453 183.818 29.3742 184.404 29.4914 185.209C29.6164 186.005 29.6789 186.787 29.6789 187.552C29.6789 188.826 29.4914 189.72 29.1164 190.236C28.9289 190.486 28.6672 190.705 28.3313 190.892C28.0031 191.072 27.6555 191.209 27.2883 191.302C26.9289 191.404 26.6047 191.455 26.3156 191.455C25.8547 191.455 25.3156 191.357 24.6984 191.162C24.0813 190.959 23.4758 190.705 22.882 190.4C22.2883 190.087 21.8 189.775 21.4172 189.462C21.0656 190.072 20.6594 190.544 20.1984 190.88C19.7375 191.216 19.1633 191.408 18.4758 191.455C18.1398 191.4 17.8313 191.224 17.55 190.927C17.2688 190.63 17.0461 190.248 16.882 189.779C16.718 189.31 16.6359 188.802 16.6359 188.255ZM30.582 184.412C30.582 183.06 30.8086 181.853 31.2617 180.791C31.7148 179.728 32.4141 178.888 33.3594 178.271C34.3125 177.646 35.5 177.334 36.9219 177.334C37.6641 177.334 38.4063 177.423 39.1484 177.603C39.8906 177.775 40.5195 178.064 41.0352 178.47C41.5117 178.853 41.8555 179.361 42.0664 179.994C42.2852 180.619 42.3945 181.314 42.3945 182.08C42.3945 182.587 42.3516 183.107 42.2656 183.638C42.1719 183.794 41.9883 184.002 41.7148 184.259C41.4414 184.509 41.1211 184.755 40.7539 184.998C40.3867 185.24 40.0313 185.427 39.6875 185.56C39.3594 185.584 39.0195 185.595 38.668 185.595C38.0508 185.595 37.4258 185.568 36.793 185.513C36.1602 185.459 35.6055 185.396 35.1289 185.326C35.1914 185.99 35.3945 186.568 35.7383 187.06C36.082 187.552 36.6289 187.798 37.3789 187.798C37.4492 187.798 37.5625 187.791 37.7188 187.775C38.1953 187.728 38.75 187.603 39.3828 187.4C40.0234 187.189 40.6602 186.947 41.293 186.673C41.5898 186.97 41.8086 187.267 41.9492 187.564C42.0898 187.861 42.1875 188.287 42.2422 188.841C42 189.123 41.6055 189.466 41.0586 189.873C40.5195 190.279 39.8594 190.646 39.0781 190.974C38.2969 191.294 37.4805 191.455 36.6289 191.455C35.3477 191.455 34.25 191.146 33.3359 190.529C32.4297 189.904 31.7422 189.06 31.2734 187.998C30.8125 186.927 30.582 185.732 30.582 184.412ZM38.1289 181.716C38.0195 181.599 37.8359 181.509 37.5781 181.447C37.3203 181.377 37.0508 181.341 36.7695 181.341C36.543 181.341 36.3125 181.361 36.0781 181.4C35.8516 181.439 35.7148 181.482 35.668 181.529C35.4023 182.052 35.2344 182.646 35.1641 183.31L38.293 183.005L38.1289 181.716ZM45.3367 188.08C45.3367 187.744 45.3445 186.919 45.3602 185.607C45.3836 183.029 45.3953 181.619 45.3953 181.377L44.3172 181.201C44.1688 180.755 44.0633 180.337 44.0008 179.947C43.9383 179.556 43.907 179.162 43.907 178.763C43.907 178.599 43.9109 178.474 43.9188 178.388C44.0516 178.271 44.2586 178.13 44.5398 177.966C44.8211 177.802 45.1531 177.658 45.5359 177.533C45.9188 177.4 46.3094 177.334 46.7078 177.334C47.6375 177.334 48.3094 177.541 48.7234 177.955C49.1453 178.369 49.3563 178.974 49.3563 179.771C49.3563 180.255 49.2938 180.877 49.1688 181.634C49.0516 182.384 48.9305 182.919 48.8055 183.24L49.2273 183.31L49.9305 180.662C50.243 179.466 50.6336 178.615 51.1023 178.107C51.5711 177.591 52.0984 177.334 52.6844 177.334C53.0672 177.334 53.4461 177.392 53.8211 177.509C54.2039 177.627 54.4969 177.771 54.7 177.943C54.9188 178.427 55.0281 179.072 55.0281 179.877C55.0281 180.439 54.9734 180.998 54.8641 181.552C54.7547 182.099 54.6141 182.541 54.4422 182.877L51.9813 182.548C51.4813 183.08 50.95 183.818 50.3875 184.763C49.825 185.701 49.3758 186.564 49.0398 187.353L49.0281 187.962L51.3016 187.423C51.6844 188.009 51.907 188.705 51.9695 189.509C51.9695 189.556 51.7938 189.748 51.4422 190.084C51.0906 190.419 50.6258 190.732 50.0477 191.021C49.4773 191.302 48.8211 191.443 48.0789 191.443C47.3133 191.443 46.6727 191.24 46.157 190.834C45.6492 190.419 45.3797 189.724 45.3484 188.748C45.3406 188.63 45.3367 188.408 45.3367 188.08ZM57.2789 188.08C57.2789 187.744 57.2867 186.919 57.3023 185.607C57.3258 183.029 57.3375 181.619 57.3375 181.377L56.2594 181.201C56.1109 180.755 56.0055 180.337 55.943 179.947C55.8805 179.556 55.8492 179.162 55.8492 178.763C55.8492 178.599 55.8531 178.474 55.8609 178.388C55.9938 178.271 56.2008 178.13 56.482 177.966C56.7633 177.802 57.0953 177.658 57.4781 177.533C57.8609 177.4 58.2516 177.334 58.65 177.334C59.5797 177.334 60.2516 177.541 60.6656 177.955C61.0875 178.369 61.2984 178.974 61.2984 179.771C61.2984 180.255 61.2359 180.877 61.1109 181.634C60.9938 182.384 60.8727 182.919 60.7477 183.24L61.1695 183.31L61.8727 180.662C62.1852 179.466 62.5758 178.615 63.0445 178.107C63.5133 177.591 64.0406 177.334 64.6266 177.334C65.0094 177.334 65.3883 177.392 65.7633 177.509C66.1461 177.627 66.4391 177.771 66.6422 177.943C66.8609 178.427 66.9703 179.072 66.9703 179.877C66.9703 180.439 66.9156 180.998 66.8063 181.552C66.6969 182.099 66.5563 182.541 66.3844 182.877L63.9234 182.548C63.4234 183.08 62.8922 183.818 62.3297 184.763C61.7672 185.701 61.318 186.564 60.982 187.353L60.9703 187.962L63.2438 187.423C63.6266 188.009 63.8492 188.705 63.9117 189.509C63.9117 189.556 63.7359 189.748 63.3844 190.084C63.0328 190.419 62.568 190.732 61.9898 191.021C61.4195 191.302 60.7633 191.443 60.0211 191.443C59.2555 191.443 58.6148 191.24 58.0992 190.834C57.5914 190.419 57.3219 189.724 57.2906 188.748C57.2828 188.63 57.2789 188.408 57.2789 188.08ZM68.0258 184.412C68.0258 183.06 68.2523 181.853 68.7055 180.791C69.1586 179.728 69.8578 178.888 70.8031 178.271C71.7563 177.646 72.9438 177.334 74.3656 177.334C75.1078 177.334 75.85 177.423 76.5922 177.603C77.3344 177.775 77.9633 178.064 78.4789 178.47C78.9555 178.853 79.2992 179.361 79.5102 179.994C79.7289 180.619 79.8383 181.314 79.8383 182.08C79.8383 182.587 79.7953 183.107 79.7094 183.638C79.6156 183.794 79.432 184.002 79.1586 184.259C78.8852 184.509 78.5648 184.755 78.1977 184.998C77.8305 185.24 77.475 185.427 77.1313 185.56C76.8031 185.584 76.4633 185.595 76.1117 185.595C75.4945 185.595 74.8695 185.568 74.2367 185.513C73.6039 185.459 73.0492 185.396 72.5727 185.326C72.6352 185.99 72.8383 186.568 73.182 187.06C73.5258 187.552 74.0727 187.798 74.8227 187.798C74.893 187.798 75.0063 187.791 75.1625 187.775C75.6391 187.728 76.1938 187.603 76.8266 187.4C77.4672 187.189 78.1039 186.947 78.7367 186.673C79.0336 186.97 79.2523 187.267 79.393 187.564C79.5336 187.861 79.6313 188.287 79.6859 188.841C79.4438 189.123 79.0492 189.466 78.5023 189.873C77.9633 190.279 77.3031 190.646 76.5219 190.974C75.7406 191.294 74.9242 191.455 74.0727 191.455C72.7914 191.455 71.6938 191.146 70.7797 190.529C69.8734 189.904 69.1859 189.06 68.7172 187.998C68.2563 186.927 68.0258 185.732 68.0258 184.412ZM75.5727 181.716C75.4633 181.599 75.2797 181.509 75.0219 181.447C74.7641 181.377 74.4945 181.341 74.2133 181.341C73.9867 181.341 73.7563 181.361 73.5219 181.4C73.2953 181.439 73.1586 181.482 73.1117 181.529C72.8461 182.052 72.6781 182.646 72.6078 183.31L75.7367 183.005L75.5727 181.716ZM82.5461 184.752C82.5461 183.478 82.5656 182.318 82.6047 181.271L81.3273 181.048C81.2258 180.658 81.1555 180.314 81.1164 180.017C81.0773 179.72 81.0578 179.404 81.0578 179.068L81.0813 178.834C81.1047 178.724 81.1164 178.634 81.1164 178.564L82.8156 178.189C82.8547 177.705 82.9445 177.158 83.0852 176.548C83.2258 175.939 83.3742 175.49 83.5305 175.201C83.7805 175.013 84.0813 174.873 84.4328 174.779C84.7844 174.685 85.1633 174.638 85.5695 174.638C85.9133 174.638 86.2453 174.673 86.5656 174.744C86.8938 174.806 87.1789 174.892 87.4211 175.002C87.4445 175.267 87.4563 175.572 87.4563 175.916C87.4563 176.478 87.4289 177.115 87.3742 177.826L89.4367 177.451C89.7258 177.951 89.8703 178.494 89.8703 179.08C89.8703 179.486 89.8195 179.853 89.718 180.181C89.6242 180.509 89.4914 180.88 89.3195 181.294C88.8039 181.38 88.0969 181.435 87.1984 181.459C87.0891 182.732 86.8469 184.603 86.4719 187.072L86.4133 187.47L86.4367 187.494L89.1906 186.638C89.7609 187.115 90.1086 187.849 90.2336 188.841C90.2336 188.896 89.9797 189.154 89.4719 189.615C88.9719 190.068 88.343 190.49 87.5852 190.88C86.8273 191.263 86.0031 191.455 85.1125 191.455C83.5578 191.455 82.7297 190.505 82.6281 188.607C82.5734 187.646 82.5461 186.361 82.5461 184.752ZM92.3555 187.084C93.043 187.357 93.5938 187.568 94.0078 187.716C94.4219 187.865 94.875 187.994 95.3672 188.103C95.8672 188.212 96.3633 188.267 96.8555 188.267C97.0742 188.267 97.2305 188.248 97.3242 188.209C97.3477 188.177 97.3672 188.13 97.3828 188.068C97.4062 187.998 97.418 187.927 97.418 187.857C97.418 187.701 97.3281 187.572 97.1484 187.47C96.8672 187.314 96.3672 187.068 95.6484 186.732C94.6641 186.263 93.8828 185.845 93.3047 185.478C92.7344 185.111 92.25 184.623 91.8516 184.013C91.4609 183.404 91.2656 182.638 91.2656 181.716C91.2656 180.396 91.6602 179.337 92.4492 178.541C93.2383 177.736 94.4883 177.334 96.1992 177.334C98.2383 177.334 99.8242 177.599 100.957 178.13C101.012 178.357 101.039 178.642 101.039 178.986C101.039 179.642 100.938 180.314 100.734 181.002C100.531 181.681 100.266 182.185 99.9375 182.513C99.4922 182.365 98.8633 182.127 98.0508 181.798C97.457 181.564 96.9844 181.384 96.6328 181.259C96.2891 181.127 95.9727 181.033 95.6836 180.978C95.5273 181.017 95.4023 181.111 95.3086 181.259C95.2148 181.4 95.168 181.568 95.168 181.763C95.168 181.935 95.2188 182.08 95.3203 182.197C95.4219 182.314 95.5352 182.408 95.6602 182.478C95.793 182.541 95.9805 182.627 96.2227 182.736C96.3477 182.791 96.4648 182.841 96.5742 182.888C96.6836 182.927 96.7852 182.966 96.8789 183.005C97.4883 183.263 97.9688 183.474 98.3203 183.638C98.6719 183.802 99.0117 183.998 99.3398 184.224C99.9414 184.638 100.414 185.111 100.758 185.642C101.102 186.173 101.273 186.755 101.273 187.388C101.273 188.263 101.023 189.021 100.523 189.662C100.031 190.294 99.3984 190.755 98.625 191.044C98.2188 191.193 97.7734 191.298 97.2891 191.361C96.8125 191.431 96.2539 191.466 95.6133 191.466C94.8555 191.466 94.0742 191.322 93.2695 191.033C92.4727 190.736 91.8633 190.244 91.4414 189.556C91.4492 189.08 91.5117 188.666 91.6289 188.314C91.7539 187.955 91.9961 187.544 92.3555 187.084ZM103.888 187.142C103.888 185.869 103.903 184.908 103.934 184.259C103.966 183.603 104.048 182.642 104.18 181.377L102.833 181.201C102.669 180.693 102.559 180.24 102.505 179.841C102.458 179.443 102.434 178.927 102.434 178.294C102.559 178.185 102.766 178.056 103.055 177.908C103.352 177.752 103.7 177.619 104.098 177.509C104.505 177.392 104.915 177.334 105.329 177.334C106.274 177.334 106.942 177.537 107.333 177.943C107.731 178.349 107.93 178.959 107.93 179.771C107.93 180.224 107.864 180.837 107.731 181.611C107.513 182.853 107.403 183.505 107.403 183.568C107.403 183.607 107.43 183.646 107.485 183.685C107.54 183.716 107.598 183.732 107.661 183.732C107.731 183.732 107.778 183.705 107.802 183.65C107.794 183.681 107.884 183.287 108.071 182.466C108.298 181.388 108.528 180.509 108.763 179.83C109.005 179.15 109.388 178.568 109.911 178.084C110.434 177.599 111.145 177.357 112.044 177.357C113.153 177.357 113.954 177.677 114.446 178.318C114.938 178.951 115.184 179.794 115.184 180.849C115.184 181.685 115.044 182.615 114.763 183.638C114.763 183.677 114.79 183.716 114.845 183.755C114.899 183.787 114.958 183.802 115.02 183.802C115.091 183.802 115.138 183.775 115.161 183.72L115.325 183.064C115.606 181.908 115.884 180.947 116.157 180.181C116.438 179.416 116.856 178.755 117.411 178.201C117.973 177.638 118.704 177.357 119.602 177.357C120.782 177.357 121.63 177.736 122.145 178.494C122.669 179.252 122.93 180.205 122.93 181.353C122.93 182.166 122.852 182.982 122.696 183.802C122.548 184.623 122.388 185.31 122.216 185.865C122.052 186.419 121.848 187.06 121.606 187.787L121.63 187.81L123.364 187.084C123.973 187.607 124.329 188.302 124.43 189.169C124.43 189.224 124.255 189.451 123.903 189.849C123.552 190.24 123.087 190.607 122.509 190.951C121.938 191.287 121.282 191.455 120.54 191.455C119.798 191.455 119.192 191.255 118.723 190.857C118.255 190.459 118.02 189.779 118.02 188.818C118.02 187.748 118.04 186.65 118.079 185.525C118.126 184.392 118.192 183.377 118.278 182.478C118.145 182.369 117.962 182.31 117.727 182.302C117.493 182.529 117.2 183.025 116.848 183.791C116.497 184.548 116.173 185.361 115.876 186.228C115.579 187.087 115.391 187.759 115.313 188.244C115.423 189.009 115.591 189.767 115.817 190.517C115.677 190.783 115.388 191.005 114.95 191.185C114.513 191.365 113.973 191.455 113.333 191.455C112.755 191.455 112.302 191.408 111.973 191.314C111.645 191.22 111.419 191.123 111.294 191.021C111.177 190.919 111.118 190.853 111.118 190.822C111.11 190.752 111.091 190.568 111.059 190.271C111.028 189.966 110.997 189.544 110.966 189.005C110.934 188.459 110.919 187.837 110.919 187.142C110.919 186.478 110.97 185.646 111.071 184.646C111.079 184.521 111.102 184.224 111.141 183.755C111.18 183.287 111.2 182.861 111.2 182.478C111.067 182.369 110.884 182.31 110.649 182.302C110.516 182.404 110.145 183.052 109.536 184.248C108.927 185.443 108.52 186.287 108.317 186.779C108.302 186.888 108.294 186.994 108.294 187.095C108.294 187.486 108.352 188.013 108.47 188.677C108.587 189.334 108.731 189.947 108.903 190.517C108.763 190.783 108.473 191.005 108.036 191.185C107.598 191.365 107.059 191.455 106.419 191.455C105.841 191.455 105.376 191.408 105.024 191.314C104.68 191.22 104.438 191.123 104.298 191.021C104.157 190.912 104.087 190.845 104.087 190.822C104.079 190.752 104.059 190.568 104.028 190.271C103.997 189.966 103.966 189.544 103.934 189.005C103.903 188.459 103.888 187.837 103.888 187.142ZM129.154 183.498C129.615 183.498 130.123 183.544 130.677 183.638C131.24 183.732 131.755 183.845 132.224 183.978V183.615C132.224 183.373 132.216 183.103 132.201 182.806C132.193 182.509 132.177 182.314 132.154 182.22C132.084 182.087 131.88 181.951 131.545 181.81C131.216 181.669 130.677 181.599 129.927 181.599C129.466 181.599 128.99 181.658 128.498 181.775C128.013 181.884 127.474 182.033 126.88 182.22C126.56 181.689 126.302 181.185 126.107 180.709C125.92 180.224 125.826 179.74 125.826 179.255C125.826 179.107 125.838 178.959 125.861 178.81C127.127 177.826 128.763 177.334 130.771 177.334C131.88 177.334 132.865 177.459 133.724 177.709C134.584 177.959 135.291 178.443 135.845 179.162C136.4 179.88 136.677 180.9 136.677 182.22C136.677 183.509 136.525 184.759 136.22 185.97C135.923 187.173 135.771 187.787 135.763 187.81L137.463 187.084C137.689 187.326 137.888 187.623 138.06 187.974C138.24 188.318 138.353 188.716 138.4 189.169C138.291 189.404 138.052 189.705 137.685 190.072C137.318 190.431 136.869 190.752 136.338 191.033C135.806 191.314 135.252 191.455 134.673 191.455C134.025 191.455 133.533 191.263 133.197 190.88C132.869 190.498 132.705 190.002 132.705 189.392C132.705 189.048 132.755 188.701 132.857 188.349L132.505 188.244C132.287 189.478 131.822 190.322 131.111 190.775C130.4 191.228 129.615 191.455 128.755 191.455C128.193 191.455 127.65 191.298 127.127 190.986C126.603 190.666 126.177 190.205 125.849 189.603C125.521 188.994 125.357 188.283 125.357 187.47C125.357 186.173 125.681 185.189 126.33 184.517C126.978 183.837 127.92 183.498 129.154 183.498ZM130.49 187.962C130.685 187.923 130.916 187.814 131.181 187.634C131.455 187.455 131.697 187.24 131.908 186.99C132.119 186.74 132.244 186.502 132.283 186.275L132.213 185.994C131.798 185.939 131.357 185.912 130.888 185.912C130.49 185.912 130.216 185.943 130.068 186.005C129.818 186.287 129.693 186.599 129.693 186.943C129.693 187.193 129.755 187.419 129.88 187.623C130.013 187.826 130.216 187.939 130.49 187.962ZM138.87 175.892C138.752 175.416 138.674 175.021 138.635 174.709C138.596 174.388 138.58 174.021 138.588 173.607C138.752 173.396 139.006 173.185 139.35 172.974C139.702 172.755 140.108 172.572 140.569 172.423C141.038 172.275 141.522 172.201 142.022 172.201C142.998 172.201 143.748 172.447 144.272 172.939C144.795 173.431 145.057 174.158 145.057 175.119C145.057 175.806 144.998 176.912 144.881 178.435C144.764 179.959 144.596 181.58 144.377 183.298C144.159 185.009 143.909 186.505 143.627 187.787L143.651 187.81L145.385 187.084C145.995 187.607 146.35 188.302 146.452 189.169C146.452 189.224 146.276 189.451 145.924 189.849C145.573 190.24 145.108 190.607 144.53 190.951C143.959 191.287 143.303 191.455 142.561 191.455C141.788 191.455 141.159 191.24 140.674 190.81C140.198 190.38 139.971 189.646 139.995 188.607L140.018 186.498C140.026 184.498 140.045 182.697 140.077 181.095C140.116 179.494 140.194 177.841 140.311 176.138L138.87 175.892ZM148.14 174.404C148.14 173.716 148.363 173.158 148.808 172.728C149.261 172.298 149.98 172.084 150.964 172.084C151.948 172.084 152.663 172.298 153.109 172.728C153.562 173.158 153.788 173.716 153.788 174.404C153.788 174.794 153.652 175.154 153.378 175.482C153.113 175.81 152.761 176.072 152.323 176.267C151.886 176.455 151.433 176.548 150.964 176.548C150.456 176.548 149.984 176.439 149.546 176.22C149.116 175.994 148.773 175.712 148.515 175.377C148.265 175.041 148.14 174.716 148.14 174.404ZM147.566 181.107C147.464 180.724 147.394 180.377 147.355 180.064C147.316 179.744 147.296 179.412 147.296 179.068L147.308 178.74C147.472 178.529 147.726 178.318 148.07 178.107C148.421 177.888 148.827 177.705 149.288 177.556C149.757 177.408 150.241 177.334 150.741 177.334C151.835 177.334 152.613 177.58 153.073 178.072C153.534 178.564 153.765 179.33 153.765 180.369C153.765 180.994 153.675 181.81 153.495 182.818C153.323 183.826 153.113 184.806 152.863 185.759C152.62 186.705 152.409 187.38 152.23 187.787L152.253 187.81L153.988 187.177C154.3 187.443 154.534 187.736 154.691 188.056C154.855 188.377 154.96 188.748 155.007 189.169C155.007 189.224 154.835 189.451 154.491 189.849C154.148 190.24 153.691 190.607 153.12 190.951C152.558 191.287 151.905 191.455 151.163 191.455C150.413 191.455 149.804 191.252 149.335 190.845C148.874 190.439 148.644 189.744 148.644 188.759C148.644 187.611 148.675 186.392 148.738 185.103C148.8 183.814 148.898 182.564 149.03 181.353L147.566 181.107ZM157.316 187.142C157.316 185.869 157.332 184.908 157.363 184.259C157.395 183.603 157.477 182.642 157.609 181.377L156.25 181.201C156.086 180.693 155.977 180.24 155.922 179.841C155.875 179.443 155.852 178.927 155.852 178.294C155.977 178.185 156.184 178.056 156.473 177.908C156.77 177.752 157.121 177.619 157.527 177.509C157.934 177.392 158.344 177.334 158.758 177.334C159.703 177.334 160.371 177.537 160.762 177.943C161.16 178.349 161.359 178.959 161.359 179.771C161.359 180.224 161.293 180.837 161.16 181.611C160.941 182.853 160.832 183.505 160.832 183.568C160.832 183.607 160.859 183.646 160.914 183.685C160.969 183.716 161.027 183.732 161.09 183.732C161.16 183.732 161.207 183.705 161.23 183.65C161.543 182.408 161.855 181.369 162.168 180.533C162.48 179.697 162.953 178.955 163.586 178.306C164.219 177.658 165.039 177.334 166.047 177.334C167.297 177.334 168.195 177.716 168.742 178.482C169.289 179.24 169.562 180.197 169.562 181.353C169.562 182.384 169.441 183.38 169.199 184.341C168.957 185.294 168.656 186.291 168.297 187.33C168.312 187.291 168.258 187.443 168.133 187.787L168.156 187.81L169.867 187.107C170.477 187.63 170.832 188.326 170.934 189.193C170.934 189.248 170.758 189.47 170.406 189.861C170.062 190.252 169.605 190.615 169.035 190.951C168.465 191.287 167.809 191.455 167.066 191.455C166.324 191.455 165.719 191.255 165.25 190.857C164.781 190.459 164.547 189.779 164.547 188.818C164.547 188.052 164.578 187.029 164.641 185.748C164.703 184.466 164.766 183.435 164.828 182.654C164.625 182.435 164.375 182.318 164.078 182.302C163.805 182.654 163.402 183.357 162.871 184.412C162.34 185.466 161.965 186.255 161.746 186.779C161.73 186.888 161.723 186.994 161.723 187.095C161.723 187.486 161.781 188.013 161.898 188.677C162.016 189.334 162.16 189.947 162.332 190.517C162.191 190.783 161.902 191.005 161.465 191.185C161.027 191.365 160.488 191.455 159.848 191.455C159.27 191.455 158.805 191.408 158.453 191.314C158.109 191.22 157.867 191.123 157.727 191.021C157.586 190.912 157.516 190.845 157.516 190.822C157.508 190.752 157.488 190.568 157.457 190.271C157.426 189.966 157.395 189.544 157.363 189.005C157.332 188.459 157.316 187.837 157.316 187.142ZM178.891 193.084C179.415 193.084 179.868 193.025 180.251 192.908C180.368 192.791 180.45 192.654 180.497 192.498C180.544 192.349 180.567 192.209 180.567 192.076C180.567 191.935 180.555 191.83 180.532 191.759C180.509 191.697 180.47 191.638 180.415 191.584C180.087 191.529 179.7 191.49 179.255 191.466C178.817 191.451 178.555 191.439 178.47 191.431C177.384 191.384 176.501 191.306 175.821 191.197C175.141 191.08 174.559 190.83 174.075 190.447C173.591 190.056 173.348 189.47 173.348 188.689C173.348 188.267 173.485 187.873 173.759 187.505C174.032 187.13 174.387 186.802 174.825 186.521C173.934 186.154 173.22 185.603 172.68 184.869C172.149 184.127 171.884 183.169 171.884 181.998C171.884 180.834 172.18 179.9 172.774 179.197C173.376 178.486 174.114 177.986 174.989 177.697C175.864 177.408 176.755 177.263 177.661 177.263C178.231 177.263 178.79 177.318 179.337 177.427C179.884 177.537 180.391 177.693 180.86 177.896L180.356 174.919C180.833 174.63 181.427 174.486 182.137 174.486C182.653 174.486 183.134 174.572 183.579 174.744C184.024 174.916 184.364 175.162 184.598 175.482C184.614 175.56 184.622 175.685 184.622 175.857C184.622 176.498 184.505 177.212 184.27 178.002C184.044 178.783 183.649 179.412 183.087 179.888C183.368 180.451 183.509 181.056 183.509 181.705C183.509 182.658 183.325 183.537 182.958 184.341C182.598 185.146 181.997 185.802 181.153 186.31C180.309 186.81 179.212 187.06 177.86 187.06C177.47 187.06 177.063 187.037 176.641 186.99C176.618 187.38 176.712 187.771 176.923 188.162C177.977 187.959 178.829 187.853 179.477 187.845L180.274 187.834C181.352 187.834 182.169 187.9 182.723 188.033C183.333 188.181 183.786 188.517 184.083 189.041C184.387 189.564 184.54 190.201 184.54 190.951C184.54 192.123 184.18 193.107 183.462 193.904C182.751 194.709 181.825 195.306 180.684 195.697C179.552 196.087 178.348 196.283 177.075 196.283C175.895 196.283 174.845 196.084 173.923 195.685C173.001 195.287 172.419 194.556 172.177 193.494C172.434 192.595 172.927 191.916 173.653 191.455C174.63 192.041 175.563 192.459 176.454 192.709C177.352 192.959 178.165 193.084 178.891 193.084ZM178.177 184.166C178.739 184.166 179.067 184.13 179.161 184.06C179.372 183.638 179.477 183.205 179.477 182.759C179.477 182.298 179.372 181.865 179.161 181.459C179.059 181.373 178.833 181.306 178.481 181.259C178.137 181.212 177.762 181.189 177.356 181.189C176.848 181.189 176.509 181.22 176.337 181.283C176.095 181.712 175.973 182.146 175.973 182.584C175.973 183.029 176.087 183.451 176.313 183.849C176.485 183.959 176.743 184.041 177.087 184.095C177.438 184.142 177.802 184.166 178.177 184.166Z" fill="#06D6A0"/>
</svg>
