<svg width="206" height="230" viewBox="0 0 206 230" fill="none" xmlns="http://www.w3.org/2000/svg">
<path d="M148.052 132H57.4275C50.5525 132 44.9275 126.375 44.9275 119.5V28.875C44.9275 22 50.5525 16.375 57.4275 16.375H148.052C154.927 16.375 160.552 22 160.552 28.875V119.5C160.552 126.375 154.927 132 148.052 132Z" stroke="#333333" stroke-width="2" stroke-linecap="round" stroke-linejoin="round"/>
<path d="M70.8025 25.75V123.875M93.9275 25.75V123.875M117.052 25.75V123.875M140.177 25.75V123.875M151.74 37.3125H53.615M151.74 60.4375H53.615M151.74 83.5625H53.3025M151.74 106.687H53.3025" stroke="#333333" stroke-width="2" stroke-linecap="round" stroke-linejoin="round"/>
<path d="M16.6962 189.02C16.6962 188.66 16.747 188.293 16.8486 187.918C16.9501 187.535 17.0869 187.219 17.2587 186.969L18.3837 187.18L19.6494 176.211L17.8447 175.953C17.6962 175.562 17.622 175.164 17.622 174.758C17.622 174.344 17.7041 173.922 17.8681 173.492C18.2822 173.297 18.9892 173.141 19.9892 173.023C20.997 172.898 21.8916 172.836 22.6728 172.836C23.3994 172.836 24.2939 172.852 25.3564 172.883L25.7666 173.07C25.9384 173.555 26.1728 174.387 26.4697 175.566C26.7744 176.738 27.29 178.809 28.0166 181.777C28.1337 182.238 28.2626 182.762 28.4033 183.348C28.7783 181.988 29.2392 180.066 29.7861 177.582L30.0791 176.305H30.1376L28.1923 175.977C28.0048 175.539 27.9111 175.07 27.9111 174.57C27.9111 174.242 27.9541 173.887 28.04 173.504C28.7978 173.262 29.5869 173.09 30.4072 172.988C31.2353 172.887 32.1376 172.836 33.1142 172.836H33.5009C33.915 172.836 34.5048 172.852 35.2705 172.883L35.6806 173.07C36.1806 174.883 36.6572 177.082 37.1103 179.668C37.5712 182.246 37.9189 184.613 38.1533 186.77L38.1884 187.062C38.1962 187.117 38.2158 187.305 38.247 187.625C38.2783 187.938 38.2939 188.238 38.2939 188.527C38.2939 188.879 38.2587 189.227 38.1884 189.57C38.0712 190.086 37.8603 190.512 37.5556 190.848C37.2509 190.973 36.9306 191.066 36.5947 191.129C36.2666 191.199 35.8837 191.234 35.4462 191.234C35.0166 191.234 34.5869 191.184 34.1572 191.082C33.7353 190.988 33.4541 190.848 33.3134 190.66L33.7353 187.977L33.0322 180.605L33.0908 176.68H32.7275L32.1533 180.699C31.3876 183.535 30.6884 185.73 30.0556 187.285C30.2744 187.715 30.4619 188.191 30.6181 188.715C30.7822 189.238 30.8837 189.75 30.9228 190.25C30.5947 190.562 30.1455 190.805 29.5751 190.977C29.0126 191.148 28.415 191.234 27.7822 191.234C27.1337 191.234 26.54 191.145 26.0009 190.965C25.4697 190.785 25.083 190.535 24.8408 190.215C24.8798 189.426 25.0751 188.664 25.4267 187.93L23.3408 180.395L22.4736 176.844L22.0751 176.902L22.6494 180.875C22.6181 182.258 22.5673 183.664 22.497 185.094C22.4267 186.523 22.3486 187.656 22.2626 188.492H22.2744C22.2119 188.984 22.0439 189.422 21.7705 189.805C21.5048 190.18 21.165 190.473 20.7509 190.684C20.3447 190.895 19.9033 191 19.4267 191C18.1767 191 17.2744 190.461 16.7197 189.383C16.7041 189.227 16.6962 189.105 16.6962 189.02ZM40.0291 184.074C40.0291 182.66 40.2556 181.434 40.7087 180.395C41.1619 179.355 41.8572 178.551 42.7947 177.98C43.7322 177.402 44.908 177.113 46.322 177.113C47.8845 177.113 49.1111 177.406 50.0017 177.992C50.8923 178.57 51.5134 179.375 51.865 180.406C52.2244 181.438 52.4041 182.699 52.4041 184.191C52.4041 185.543 52.1658 186.75 51.6892 187.812C51.2205 188.867 50.5095 189.703 49.5564 190.32C48.6111 190.93 47.4509 191.234 46.0759 191.234C43.9509 191.234 42.4119 190.582 41.4587 189.277C40.5056 187.965 40.0291 186.23 40.0291 184.074ZM46.5564 187.801C46.9548 187.801 47.197 187.77 47.283 187.707C47.4627 187.395 47.5994 186.953 47.6931 186.383C47.7869 185.812 47.8337 185.195 47.8337 184.531C47.8337 183.922 47.7947 183.352 47.7166 182.82C47.6384 182.281 47.5291 181.859 47.3884 181.555C47.3025 181.453 47.1306 181.379 46.8728 181.332C46.615 181.277 46.3337 181.25 46.0291 181.25C45.6306 181.25 45.3572 181.293 45.2087 181.379C44.8181 182.051 44.6228 182.984 44.6228 184.18C44.6228 184.742 44.6658 185.316 44.7517 185.902C44.8377 186.488 44.947 187.02 45.0798 187.496C45.1736 187.598 45.365 187.676 45.6541 187.73C45.9431 187.777 46.2439 187.801 46.5564 187.801ZM55.2994 186.863C55.9869 187.137 56.5377 187.348 56.9517 187.496C57.3658 187.645 57.8189 187.773 58.3111 187.883C58.8111 187.992 59.3072 188.047 59.7994 188.047C60.0181 188.047 60.1744 188.027 60.2681 187.988C60.2916 187.957 60.3111 187.91 60.3267 187.848C60.3502 187.777 60.3619 187.707 60.3619 187.637C60.3619 187.48 60.272 187.352 60.0923 187.25C59.8111 187.094 59.3111 186.848 58.5923 186.512C57.608 186.043 56.8267 185.625 56.2486 185.258C55.6783 184.891 55.1939 184.402 54.7955 183.793C54.4048 183.184 54.2095 182.418 54.2095 181.496C54.2095 180.176 54.6041 179.117 55.3931 178.32C56.1822 177.516 57.4322 177.113 59.1431 177.113C61.1822 177.113 62.7681 177.379 63.9009 177.91C63.9556 178.137 63.983 178.422 63.983 178.766C63.983 179.422 63.8814 180.094 63.6783 180.781C63.4752 181.461 63.2095 181.965 62.8814 182.293C62.4361 182.145 61.8072 181.906 60.9947 181.578C60.4009 181.344 59.9283 181.164 59.5767 181.039C59.233 180.906 58.9166 180.812 58.6275 180.758C58.4712 180.797 58.3462 180.891 58.2525 181.039C58.1587 181.18 58.1119 181.348 58.1119 181.543C58.1119 181.715 58.1627 181.859 58.2642 181.977C58.3658 182.094 58.4791 182.188 58.6041 182.258C58.7369 182.32 58.9244 182.406 59.1666 182.516C59.2916 182.57 59.4087 182.621 59.5181 182.668C59.6275 182.707 59.7291 182.746 59.8228 182.785C60.4322 183.043 60.9127 183.254 61.2642 183.418C61.6158 183.582 61.9556 183.777 62.2837 184.004C62.8853 184.418 63.358 184.891 63.7017 185.422C64.0455 185.953 64.2173 186.535 64.2173 187.168C64.2173 188.043 63.9673 188.801 63.4673 189.441C62.9752 190.074 62.3423 190.535 61.5689 190.824C61.1627 190.973 60.7173 191.078 60.233 191.141C59.7564 191.211 59.1978 191.246 58.5572 191.246C57.7994 191.246 57.0181 191.102 56.2134 190.812C55.4166 190.516 54.8072 190.023 54.3853 189.336C54.3931 188.859 54.4556 188.445 54.5728 188.094C54.6978 187.734 54.94 187.324 55.2994 186.863ZM69.4916 183.277C69.9525 183.277 70.4603 183.324 71.015 183.418C71.5775 183.512 72.0931 183.625 72.5619 183.758V183.395C72.5619 183.152 72.5541 182.883 72.5384 182.586C72.5306 182.289 72.515 182.094 72.4916 182C72.4212 181.867 72.2181 181.73 71.8822 181.59C71.5541 181.449 71.015 181.379 70.265 181.379C69.8041 181.379 69.3275 181.438 68.8353 181.555C68.3509 181.664 67.8119 181.812 67.2181 182C66.8978 181.469 66.64 180.965 66.4447 180.488C66.2572 180.004 66.1634 179.52 66.1634 179.035C66.1634 178.887 66.1751 178.738 66.1986 178.59C67.4642 177.605 69.1009 177.113 71.1087 177.113C72.2181 177.113 73.2025 177.238 74.0619 177.488C74.9212 177.738 75.6283 178.223 76.183 178.941C76.7376 179.66 77.015 180.68 77.015 182C77.015 183.289 76.8626 184.539 76.558 185.75C76.2611 186.953 76.1087 187.566 76.1009 187.59L77.8001 186.863C78.0267 187.105 78.2259 187.402 78.3978 187.754C78.5775 188.098 78.6908 188.496 78.7376 188.949C78.6283 189.184 78.39 189.484 78.0228 189.852C77.6556 190.211 77.2064 190.531 76.6751 190.812C76.1439 191.094 75.5892 191.234 75.0111 191.234C74.3626 191.234 73.8705 191.043 73.5345 190.66C73.2064 190.277 73.0423 189.781 73.0423 189.172C73.0423 188.828 73.0931 188.48 73.1947 188.129L72.8431 188.023C72.6244 189.258 72.1595 190.102 71.4486 190.555C70.7376 191.008 69.9525 191.234 69.0931 191.234C68.5306 191.234 67.9876 191.078 67.4642 190.766C66.9408 190.445 66.515 189.984 66.1869 189.383C65.8587 188.773 65.6947 188.062 65.6947 187.25C65.6947 185.953 66.0189 184.969 66.6673 184.297C67.3158 183.617 68.2572 183.277 69.4916 183.277ZM70.8275 187.742C71.0228 187.703 71.2533 187.594 71.5189 187.414C71.7923 187.234 72.0345 187.02 72.2455 186.77C72.4564 186.52 72.5814 186.281 72.6205 186.055L72.5501 185.773C72.1361 185.719 71.6947 185.691 71.2259 185.691C70.8275 185.691 70.5541 185.723 70.4056 185.785C70.1556 186.066 70.0306 186.379 70.0306 186.723C70.0306 186.973 70.0931 187.199 70.2181 187.402C70.3509 187.605 70.5541 187.719 70.8275 187.742ZM80.0509 174.184C80.0509 173.496 80.2736 172.938 80.7189 172.508C81.172 172.078 81.8908 171.863 82.8751 171.863C83.8595 171.863 84.5744 172.078 85.0197 172.508C85.4728 172.938 85.6994 173.496 85.6994 174.184C85.6994 174.574 85.5626 174.934 85.2892 175.262C85.0236 175.59 84.672 175.852 84.2345 176.047C83.797 176.234 83.3439 176.328 82.8751 176.328C82.3673 176.328 81.8947 176.219 81.4572 176C81.0275 175.773 80.6837 175.492 80.4259 175.156C80.1759 174.82 80.0509 174.496 80.0509 174.184ZM79.4767 180.887C79.3751 180.504 79.3048 180.156 79.2658 179.844C79.2267 179.523 79.2072 179.191 79.2072 178.848L79.2189 178.52C79.383 178.309 79.6369 178.098 79.9806 177.887C80.3322 177.668 80.7384 177.484 81.1994 177.336C81.6681 177.188 82.1525 177.113 82.6525 177.113C83.7462 177.113 84.5236 177.359 84.9845 177.852C85.4455 178.344 85.6759 179.109 85.6759 180.148C85.6759 180.773 85.5861 181.59 85.4064 182.598C85.2345 183.605 85.0236 184.586 84.7736 185.539C84.5314 186.484 84.3205 187.16 84.1408 187.566L84.1642 187.59L85.8986 186.957C86.2111 187.223 86.4455 187.516 86.6017 187.836C86.7658 188.156 86.8712 188.527 86.9181 188.949C86.9181 189.004 86.7462 189.23 86.4025 189.629C86.0587 190.02 85.6017 190.387 85.0314 190.73C84.4689 191.066 83.8166 191.234 83.0744 191.234C82.3244 191.234 81.715 191.031 81.2462 190.625C80.7853 190.219 80.5548 189.523 80.5548 188.539C80.5548 187.391 80.5861 186.172 80.6486 184.883C80.7111 183.594 80.8087 182.344 80.9416 181.133L79.4767 180.887ZM88.7822 183.43C88.7822 179.773 88.8525 177.266 88.9931 175.906L87.6689 175.672C87.4814 174.953 87.3876 174.18 87.3876 173.352C87.5048 173.203 87.7236 173.02 88.0439 172.801C88.3642 172.582 88.7353 172.391 89.1572 172.227C89.5869 172.062 90.0126 171.98 90.4345 171.98C91.4814 171.98 92.2939 172.207 92.872 172.66C93.458 173.113 93.7509 173.887 93.7509 174.98C93.7509 175.527 93.7119 176.367 93.6337 177.5C93.5556 178.625 93.4111 179.992 93.2001 181.602C92.9892 183.211 92.708 184.891 92.3564 186.641L92.5556 186.758C93.1728 185.906 93.7666 184.969 94.3369 183.945C94.9072 182.914 95.3603 181.957 95.6962 181.074L94.6884 180.828C94.5947 180.297 94.5478 179.668 94.5478 178.941V178.52C94.8447 178.145 95.2509 177.816 95.7666 177.535C96.29 177.254 96.9384 177.113 97.7119 177.113C98.2666 177.113 98.747 177.219 99.1533 177.43C99.5595 177.633 99.872 177.918 100.091 178.285C100.31 178.652 100.419 179.074 100.419 179.551C100.419 179.91 100.364 180.25 100.255 180.57C100.145 180.883 99.9814 181.215 99.7626 181.566C99.2001 182.457 98.2197 183.723 96.8212 185.363C97.29 186.02 97.747 186.59 98.1923 187.074C98.3642 186.988 98.5244 186.875 98.6728 186.734C98.8291 186.594 99.0283 186.391 99.2705 186.125L99.5283 185.855L100.97 186.945C100.915 188.336 100.614 189.398 100.067 190.133C99.5283 190.859 98.8134 191.223 97.9228 191.223C96.9462 191.223 96.2119 190.926 95.7197 190.332C95.2275 189.738 94.8681 188.898 94.6416 187.812C93.7822 188.742 93.0244 189.523 92.3681 190.156C91.7197 190.781 91.2939 191.141 91.0908 191.234C90.6611 191.234 90.2509 191.184 89.8603 191.082C89.4697 190.98 89.1806 190.82 88.9931 190.602C88.9072 189.492 88.8486 188.395 88.8173 187.309C88.7939 186.215 88.7822 184.922 88.7822 183.43ZM103.068 183.43C103.068 179.773 103.138 177.266 103.279 175.906L101.955 175.672C101.767 174.953 101.674 174.18 101.674 173.352C101.791 173.203 102.01 173.02 102.33 172.801C102.65 172.582 103.021 172.391 103.443 172.227C103.873 172.062 104.299 171.98 104.72 171.98C105.767 171.98 106.58 172.207 107.158 172.66C107.744 173.113 108.037 173.887 108.037 174.98C108.037 175.527 107.998 176.367 107.92 177.5C107.842 178.625 107.697 179.992 107.486 181.602C107.275 183.211 106.994 184.891 106.642 186.641L106.842 186.758C107.459 185.906 108.052 184.969 108.623 183.945C109.193 182.914 109.646 181.957 109.982 181.074L108.974 180.828C108.881 180.297 108.834 179.668 108.834 178.941V178.52C109.131 178.145 109.537 177.816 110.052 177.535C110.576 177.254 111.224 177.113 111.998 177.113C112.552 177.113 113.033 177.219 113.439 177.43C113.845 177.633 114.158 177.918 114.377 178.285C114.595 178.652 114.705 179.074 114.705 179.551C114.705 179.91 114.65 180.25 114.541 180.57C114.431 180.883 114.267 181.215 114.049 181.566C113.486 182.457 112.506 183.723 111.107 185.363C111.576 186.02 112.033 186.59 112.478 187.074C112.65 186.988 112.81 186.875 112.959 186.734C113.115 186.594 113.314 186.391 113.556 186.125L113.814 185.855L115.256 186.945C115.201 188.336 114.9 189.398 114.353 190.133C113.814 190.859 113.099 191.223 112.209 191.223C111.232 191.223 110.498 190.926 110.006 190.332C109.513 189.738 109.154 188.898 108.927 187.812C108.068 188.742 107.31 189.523 106.654 190.156C106.006 190.781 105.58 191.141 105.377 191.234C104.947 191.234 104.537 191.184 104.146 191.082C103.756 190.98 103.467 190.82 103.279 190.602C103.193 189.492 103.135 188.395 103.103 187.309C103.08 186.215 103.068 184.922 103.068 183.43ZM122.992 189.793C122.992 188.98 122.98 188.094 122.956 187.133C122.933 186.164 122.917 185.527 122.91 185.223C122.847 183.191 122.816 181.664 122.816 180.641C122.816 179.133 122.855 177.844 122.933 176.773L121.374 176.527C121.273 176.105 121.202 175.75 121.163 175.461C121.117 175.172 121.093 174.855 121.093 174.512V174.242C121.257 174.039 121.519 173.828 121.878 173.609C122.245 173.391 122.671 173.207 123.156 173.059C123.648 172.91 124.144 172.836 124.644 172.836C125.566 172.836 126.3 173.027 126.847 173.41C127.394 173.793 127.667 174.391 127.667 175.203C127.667 176.906 127.574 179.75 127.386 183.734L128.113 183.57C128.605 182.688 129.152 181.527 129.753 180.09C130.363 178.652 130.761 177.539 130.949 176.75L129.495 176.504C129.394 176.082 129.32 175.727 129.273 175.438C129.234 175.148 129.214 174.832 129.214 174.488V174.219C129.37 174.023 129.648 173.816 130.046 173.598C130.452 173.371 130.917 173.184 131.441 173.035C131.964 172.887 132.48 172.812 132.988 172.812C133.542 172.812 134.046 172.906 134.499 173.094C134.952 173.281 135.312 173.57 135.577 173.961C135.851 174.352 135.988 174.832 135.988 175.402C135.988 176.387 135.57 177.57 134.734 178.953C133.906 180.336 132.91 181.723 131.745 183.113C132.128 183.91 132.538 184.66 132.976 185.363C133.413 186.066 133.8 186.598 134.136 186.957C134.308 186.871 134.468 186.758 134.617 186.617C134.773 186.477 134.972 186.273 135.214 186.008L135.472 185.738L136.913 186.828V187.086C136.913 188.328 136.601 189.328 135.976 190.086C135.359 190.844 134.421 191.223 133.163 191.223C132.695 191.223 132.249 191.156 131.827 191.023C131.242 190.844 130.734 190.488 130.304 189.957C129.882 189.426 129.546 188.812 129.296 188.117C129.054 187.414 128.886 186.691 128.792 185.949C128.402 186.043 127.89 186.109 127.257 186.148C127.187 187.484 127.097 189.012 126.988 190.73C126.355 191.074 125.652 191.246 124.878 191.246C124.206 191.246 123.574 191.125 122.98 190.883L122.992 189.793ZM137.664 180.898C137.531 180.328 137.445 179.91 137.406 179.645C137.367 179.379 137.348 178.977 137.348 178.438C137.809 178 138.305 177.672 138.836 177.453C139.367 177.227 139.965 177.113 140.629 177.113C142.645 177.113 143.652 178.125 143.652 180.148C143.652 180.688 143.602 181.312 143.5 182.023C143.406 182.734 143.27 183.629 143.09 184.707C143.067 184.848 143.004 185.227 142.902 185.844C142.801 186.461 142.731 186.977 142.692 187.391C142.824 187.531 142.988 187.629 143.184 187.684C143.277 187.684 143.492 187.492 143.828 187.109C144.172 186.719 144.539 186.246 144.93 185.691C145.32 185.137 145.641 184.625 145.891 184.156C145.953 183.039 146.039 182.012 146.149 181.074L144.918 180.828C144.817 180.438 144.746 180.094 144.707 179.797C144.668 179.5 144.649 179.184 144.649 178.848L144.66 178.52C144.942 178.16 145.363 177.836 145.926 177.547C146.488 177.258 147.133 177.113 147.86 177.113C149.875 177.113 150.883 178.125 150.883 180.148C150.883 180.969 150.746 182.051 150.473 183.395C150.199 184.73 149.879 186.082 149.512 187.449L150.86 186.863C151.086 187.105 151.285 187.402 151.457 187.754C151.637 188.098 151.75 188.496 151.797 188.949C151.688 189.184 151.449 189.484 151.082 189.852C150.715 190.211 150.266 190.531 149.735 190.812C149.203 191.094 148.649 191.234 148.07 191.234C147.422 191.234 146.922 191.043 146.57 190.66C146.227 190.27 146.055 189.773 146.055 189.172C146.055 189.016 146.094 188.695 146.172 188.211C146.258 187.727 146.328 187.391 146.383 187.203L146.055 187.098C145.664 188.465 145.125 189.496 144.438 190.191C143.758 190.887 142.981 191.234 142.106 191.234C140.848 191.234 139.961 190.82 139.445 189.992C138.93 189.156 138.672 188.121 138.672 186.887C138.672 184.566 138.75 182.629 138.906 181.074L137.664 180.898ZM154.095 186.922C154.095 185.648 154.11 184.688 154.142 184.039C154.173 183.383 154.255 182.422 154.388 181.156L153.028 180.98C152.864 180.473 152.755 180.02 152.7 179.621C152.653 179.223 152.63 178.707 152.63 178.074C152.755 177.965 152.962 177.836 153.251 177.688C153.548 177.531 153.899 177.398 154.306 177.289C154.712 177.172 155.122 177.113 155.536 177.113C156.481 177.113 157.149 177.316 157.54 177.723C157.938 178.129 158.138 178.738 158.138 179.551C158.138 180.004 158.071 180.617 157.938 181.391C157.72 182.633 157.61 183.285 157.61 183.348C157.61 183.387 157.638 183.426 157.692 183.465C157.747 183.496 157.806 183.512 157.868 183.512C157.938 183.512 157.985 183.484 158.009 183.43C158.321 182.188 158.634 181.148 158.946 180.312C159.259 179.477 159.731 178.734 160.364 178.086C160.997 177.438 161.817 177.113 162.825 177.113C164.075 177.113 164.974 177.496 165.52 178.262C166.067 179.02 166.341 179.977 166.341 181.133C166.341 182.164 166.22 183.16 165.977 184.121C165.735 185.074 165.435 186.07 165.075 187.109C165.091 187.07 165.036 187.223 164.911 187.566L164.935 187.59L166.645 186.887C167.255 187.41 167.61 188.105 167.712 188.973C167.712 189.027 167.536 189.25 167.185 189.641C166.841 190.031 166.384 190.395 165.813 190.73C165.243 191.066 164.587 191.234 163.845 191.234C163.102 191.234 162.497 191.035 162.028 190.637C161.56 190.238 161.325 189.559 161.325 188.598C161.325 187.832 161.356 186.809 161.419 185.527C161.481 184.246 161.544 183.215 161.606 182.434C161.403 182.215 161.153 182.098 160.856 182.082C160.583 182.434 160.181 183.137 159.649 184.191C159.118 185.246 158.743 186.035 158.524 186.559C158.509 186.668 158.501 186.773 158.501 186.875C158.501 187.266 158.56 187.793 158.677 188.457C158.794 189.113 158.938 189.727 159.11 190.297C158.97 190.562 158.681 190.785 158.243 190.965C157.806 191.145 157.267 191.234 156.626 191.234C156.048 191.234 155.583 191.188 155.231 191.094C154.888 191 154.645 190.902 154.505 190.801C154.364 190.691 154.294 190.625 154.294 190.602C154.286 190.531 154.267 190.348 154.235 190.051C154.204 189.746 154.173 189.324 154.142 188.785C154.11 188.238 154.095 187.617 154.095 186.922ZM169.927 186.863C170.615 187.137 171.166 187.348 171.58 187.496C171.994 187.645 172.447 187.773 172.939 187.883C173.439 187.992 173.935 188.047 174.427 188.047C174.646 188.047 174.802 188.027 174.896 187.988C174.92 187.957 174.939 187.91 174.955 187.848C174.978 187.777 174.99 187.707 174.99 187.637C174.99 187.48 174.9 187.352 174.72 187.25C174.439 187.094 173.939 186.848 173.22 186.512C172.236 186.043 171.455 185.625 170.877 185.258C170.306 184.891 169.822 184.402 169.424 183.793C169.033 183.184 168.838 182.418 168.838 181.496C168.838 180.176 169.232 179.117 170.021 178.32C170.81 177.516 172.06 177.113 173.771 177.113C175.81 177.113 177.396 177.379 178.529 177.91C178.584 178.137 178.611 178.422 178.611 178.766C178.611 179.422 178.51 180.094 178.306 180.781C178.103 181.461 177.838 181.965 177.51 182.293C177.064 182.145 176.435 181.906 175.623 181.578C175.029 181.344 174.556 181.164 174.205 181.039C173.861 180.906 173.545 180.812 173.256 180.758C173.099 180.797 172.974 180.891 172.881 181.039C172.787 181.18 172.74 181.348 172.74 181.543C172.74 181.715 172.791 181.859 172.892 181.977C172.994 182.094 173.107 182.188 173.232 182.258C173.365 182.32 173.552 182.406 173.795 182.516C173.92 182.57 174.037 182.621 174.146 182.668C174.256 182.707 174.357 182.746 174.451 182.785C175.06 183.043 175.541 183.254 175.892 183.418C176.244 183.582 176.584 183.777 176.912 184.004C177.513 184.418 177.986 184.891 178.33 185.422C178.674 185.953 178.845 186.535 178.845 187.168C178.845 188.043 178.595 188.801 178.095 189.441C177.603 190.074 176.97 190.535 176.197 190.824C175.791 190.973 175.345 191.078 174.861 191.141C174.385 191.211 173.826 191.246 173.185 191.246C172.427 191.246 171.646 191.102 170.842 190.812C170.045 190.516 169.435 190.023 169.013 189.336C169.021 188.859 169.084 188.445 169.201 188.094C169.326 187.734 169.568 187.324 169.927 186.863ZM181.307 184.531C181.307 183.258 181.327 182.098 181.366 181.051L180.088 180.828C179.987 180.438 179.917 180.094 179.877 179.797C179.838 179.5 179.819 179.184 179.819 178.848L179.842 178.613C179.866 178.504 179.877 178.414 179.877 178.344L181.577 177.969C181.616 177.484 181.706 176.938 181.846 176.328C181.987 175.719 182.135 175.27 182.292 174.98C182.542 174.793 182.842 174.652 183.194 174.559C183.545 174.465 183.924 174.418 184.331 174.418C184.674 174.418 185.006 174.453 185.327 174.523C185.655 174.586 185.94 174.672 186.182 174.781C186.206 175.047 186.217 175.352 186.217 175.695C186.217 176.258 186.19 176.895 186.135 177.605L188.198 177.23C188.487 177.73 188.631 178.273 188.631 178.859C188.631 179.266 188.581 179.633 188.479 179.961C188.385 180.289 188.252 180.66 188.081 181.074C187.565 181.16 186.858 181.215 185.96 181.238C185.85 182.512 185.608 184.383 185.233 186.852L185.174 187.25L185.198 187.273L187.952 186.418C188.522 186.895 188.87 187.629 188.995 188.621C188.995 188.676 188.741 188.934 188.233 189.395C187.733 189.848 187.104 190.27 186.346 190.66C185.588 191.043 184.764 191.234 183.874 191.234C182.319 191.234 181.491 190.285 181.389 188.387C181.335 187.426 181.307 186.141 181.307 184.531Z" fill="#06D6A0"/>
</svg>
